HIERARCHY
ROOT hip
{
  OFFSET 0 0 0
  CHANNELS 6 Xposition Yposition Zposition Zrotation Yrotation Xrotation
  JOINT abdomen
  {
    OFFSET 0 20.6881 -0.73152
    CHANNELS 3 Zrotation Xrotation Yrotation
    JOINT chest
    {
      OFFSET 0 11.7043 -0.48768
      CHANNELS 3 Zrotation Xrotation Yrotation
      JOINT neck
      {
        OFFSET 0 22.1894 -2.19456
        CHANNELS 3 Zrotation Xrotation Yrotation
        JOINT head
        {
          OFFSET -0.24384 7.07133 1.2192
          CHANNELS 3 Zrotation Xrotation Yrotation
          JOINT leftEye
          {
            OFFSET 4.14528 8.04674 8.04672
            CHANNELS 3 Zrotation Xrotation Yrotation
            End Site
            {
              OFFSET 1 0 0
            }
          }
          JOINT rightEye
          {
            OFFSET -3.6576 8.04674 8.04672
            CHANNELS 3 Zrotation Xrotation Yrotation
            End Site
            {
              OFFSET 1 0 0
            }
          }
        }
      }
      JOINT rCollar
      {
        OFFSET -2.68224 19.2634 -4.8768
        CHANNELS 3 Zrotation Xrotation Yrotation
        JOINT rShldr
        {
          OFFSET -8.77824 -1.95073 1.46304
          CHANNELS 3 Zrotation Xrotation Yrotation
          JOINT rForeArm
          {
            OFFSET -28.1742 -1.7115 0.48768
            CHANNELS 3 Zrotation Xrotation Yrotation
            JOINT rHand
            {
              OFFSET -22.5879 0.773209 7.07136
              CHANNELS 3 Zrotation Xrotation Yrotation
              JOINT rThumb1
              {
                OFFSET -1.2192 -0.487915 3.41376
                CHANNELS 3 Zrotation Xrotation Yrotation
                JOINT rThumb2
                {
                  OFFSET -3.37035 -0.52449 3.41376
                  CHANNELS 3 Zrotation Xrotation Yrotation
                  End Site
                  {
                    OFFSET -1.78271 -1.18214 1.43049
                  }
                }
              }
              JOINT rIndex1
              {
                OFFSET -7.75947 0.938293 5.60832
                CHANNELS 3 Zrotation Xrotation Yrotation
                JOINT rIndex2
                {
                  OFFSET -2.54057 -0.884171 1.56538
                  CHANNELS 3 Zrotation Xrotation Yrotation
                  End Site
                  {
                    OFFSET -1.62519 -0.234802 1.16502
                  }
                }
              }
              JOINT rMid1
              {
                OFFSET -8.24714 1.18213 3.41376
                CHANNELS 3 Zrotation Xrotation Yrotation
                JOINT rMid2
                {
                  OFFSET -3.10165 -0.590103 1.0647
                  CHANNELS 3 Zrotation Xrotation Yrotation
                  End Site
                  {
                    OFFSET -2.48547 -0.328903 0.83742
                  }
                }
              }
              JOINT rRing1
              {
                OFFSET -8.82822 0.546677 1.51678
                CHANNELS 3 Zrotation Xrotation Yrotation
                JOINT rRing2
                {
                  OFFSET -2.60934 -0.819778 -0.0198488
                  CHANNELS 3 Zrotation Xrotation Yrotation
                  End Site
                  {
                    OFFSET -2.33842 -0.294052 0.168128
                  }
                }
              }
              JOINT rPinky1
              {
                OFFSET -8.27202 -0.0477905 -0.4584
                CHANNELS 3 Zrotation Xrotation Yrotation
                JOINT rPinky2
                {
                  OFFSET -1.82734 -0.647385 -0.700984
                  CHANNELS 3 Zrotation Xrotation Yrotation
                  End Site
                  {
                    OFFSET -1.69225 -0.51767 -0.607171
                  }
                }
              }
            }
          }
        }
      }
      JOINT lCollar
      {
        OFFSET 2.68224 19.2634 -4.8768
        CHANNELS 3 Zrotation Xrotation Yrotation
        JOINT lShldr
        {
          OFFSET 8.77824 -1.95073 1.46304
          CHANNELS 3 Zrotation Xrotation Yrotation
          JOINT lForeArm
          {
            OFFSET 28.1742 -1.7115 0.48768
            CHANNELS 3 Zrotation Xrotation Yrotation
            JOINT lHand
            {
              OFFSET 22.5879 0.773209 7.07136
              CHANNELS 3 Zrotation Xrotation Yrotation
              JOINT lThumb1
              {
                OFFSET 1.2192 -0.487915 3.41376
                CHANNELS 3 Zrotation Xrotation Yrotation
                JOINT lThumb2
                {
                  OFFSET 3.37035 -0.52449 3.41376
                  CHANNELS 3 Zrotation Xrotation Yrotation
                  End Site
                  {
                    OFFSET 1.78271 -1.18214 1.43049
                  }
                }
              }
              JOINT lIndex1
              {
                OFFSET 7.75947 0.938293 5.60832
                CHANNELS 3 Zrotation Xrotation Yrotation
                JOINT lIndex2
                {
                  OFFSET 2.54057 -0.884171 1.56538
                  CHANNELS 3 Zrotation Xrotation Yrotation
                  End Site
                  {
                    OFFSET 1.62519 -0.234802 1.16502
                  }
                }
              }
              JOINT lMid1
              {
                OFFSET 8.24714 1.18213 3.41376
                CHANNELS 3 Zrotation Xrotation Yrotation
                JOINT lMid2
                {
                  OFFSET 3.10165 -0.590103 1.0647
                  CHANNELS 3 Zrotation Xrotation Yrotation
                  End Site
                  {
                    OFFSET 2.48547 -0.328903 0.83742
                  }
                }
              }
              JOINT lRing1
              {
                OFFSET 8.82822 0.546677 1.51678
                CHANNELS 3 Zrotation Xrotation Yrotation
                JOINT lRing2
                {
                  OFFSET 2.60934 -0.819778 -0.0198488
                  CHANNELS 3 Zrotation Xrotation Yrotation
                  End Site
                  {
                    OFFSET 2.33842 -0.294052 0.168128
                  }
                }
              }
              JOINT lPinky1
              {
                OFFSET 8.27202 -0.0477905 -0.4584
                CHANNELS 3 Zrotation Xrotation Yrotation
                JOINT lPinky2
                {
                  OFFSET 1.82734 -0.647385 -0.700984
                  CHANNELS 3 Zrotation Xrotation Yrotation
                  End Site
                  {
                    OFFSET 1.69225 -0.51767 -0.607171
                  }
                }
              }
            }
          }
        }
      }
    }
  }
  JOINT rButtock
  {
    OFFSET -8.77824 4.35084 1.2192
    CHANNELS 3 Zrotation Xrotation Yrotation
    JOINT rThigh
    {
      OFFSET 0 -1.70687 -2.19456
      CHANNELS 3 Zrotation Xrotation Yrotation
      JOINT rShin
      {
        OFFSET 0 -36.8199 0.73152
        CHANNELS 3 Zrotation Xrotation Yrotation
        JOINT rFoot
        {
          OFFSET 0.73152 -45.1104 -5.12064
          CHANNELS 3 Zrotation Xrotation Yrotation
          End Site
          {
            OFFSET -1.1221 -3.69964 12.103
          }
        }
      }
    }
  }
  JOINT lButtock
  {
    OFFSET 8.77824 4.35084 1.2192
    CHANNELS 3 Zrotation Xrotation Yrotation
    JOINT lThigh
    {
      OFFSET 0 -1.70687 -2.19456
      CHANNELS 3 Zrotation Xrotation Yrotation
      JOINT lShin
      {
        OFFSET 0 -36.8199 0.73152
        CHANNELS 3 Zrotation Xrotation Yrotation
        JOINT lFoot
        {
          OFFSET -0.73152 -45.1104 -5.12064
          CHANNELS 3 Zrotation Xrotation Yrotation
          End Site
          {
            OFFSET 1.1221 -3.69964 12.103
          }
        }
      }
    }
  }
}
MOTION
Frames:	9
Frame Time:	0.00833333
66.7717 77.3136 16.5933 -191.667 70.0664 -185.583 -13.2246 14.1425 -9.11404 9.92645 3.1602 -2.97318 -13.9485 9.37536 0.725187 23.4555 -37.496 11.7271 -0.0 0.0 0.0 -0.0 0.0 0.0 -3.17243e-13 5.82816e-12 8.62129e-13 76.1049 1.9526 9.17036 -28.3849 -37.2905 79.1901 -2.67194 -41.2765 -7.08642 -1.71553e-09 -2.3935e-09 2.53238e-09 -3.03671e-09 -4.00044e-09 4.30626e-09 -1.71551e-09 -2.3935e-09 2.53237e-09 7.73091 5.47488 0.417314 -1.71553e-09 -2.39348e-09 2.53236e-09 2.90554 0.965183 0.102902 -1.71552e-09 -2.3935e-09 2.53237e-09 10.2786 0.731801 0.0259123 -1.71553e-09 -2.3935e-09 2.53237e-09 2.22167 -0.733487 -0.20892 -3.17249e-13 5.82817e-12 8.61831e-13 -72.0432 45.3366 2.2832 24.8022 -20.6778 -52.2574 0.640463 -22.1229 3.27527 -2.97381e-10 -1.32156e-09 -4.77956e-09 -4.31226e-10 -2.28842e-09 -8.26205e-09 -2.97385e-10 -1.32156e-09 -4.77954e-09 -7.73091 5.47488 -0.417314 -2.97381e-10 -1.32156e-09 -4.77956e-09 -2.90554 0.965183 -0.102902 -2.97389e-10 -1.32156e-09 -4.77956e-09 -10.2786 0.731801 -0.0259123 -2.97374e-10 -1.32156e-09 -4.77956e-09 -2.22167 -0.733487 0.20892 -2.03217e-16 0.0 -3.88251e-19 -15.674 -47.8664 -2.93535 -0.286109 34.2275 0.322425 0.308633 -3.42328 5.16581 2.03217e-16 0.0 3.88251e-19 -11.2022 16.4469 2.97563 0.713381 55.6003 -1.69921 0.256302 11.491 10.5252
70.6914 76.7349 15.3654 -189.886 70.2654 -184.757 -12.2103 14.7315 -9.08397 9.46486 2.96469 -2.89495 -13.8442 9.47436 0.952749 23.493 -38.3421 12.4141 -0.0 0.0 0.0 -0.0 0.0 0.0 -2.57266e-13 3.76951e-12 6.15934e-13 76.7774 2.58154 8.63593 -28.3127 -38.1748 80.7391 -3.04213 -43.4401 -7.64175 -8.76649e-10 -1.99127e-09 2.0786e-09 -1.57585e-09 -3.36141e-09 3.55667e-09 -8.76636e-10 -1.99127e-09 2.07859e-09 7.73091 5.47488 0.417314 -8.76651e-10 -1.99126e-09 2.07859e-09 2.90554 0.965183 0.102902 -8.76642e-10 -1.99127e-09 2.07859e-09 10.2786 0.731801 0.0259123 -8.76651e-10 -1.99127e-09 2.0786e-09 2.22167 -0.733487 -0.20892 -2.57275e-13 3.76952e-12 6.15641e-13 -75.8838 44.7576 6.08603 24.329 -19.7218 -50.6371 0.564228 -20.9413 3.08083 -2.94325e-10 -9.85148e-10 -3.64691e-09 -4.43291e-10 -1.7066e-09 -6.30435e-09 -2.94329e-10 -9.85148e-10 -3.64688e-09 -7.73091 5.47488 -0.417314 -2.94325e-10 -9.85145e-10 -3.64691e-09 -2.90554 0.965183 -0.102902 -2.94334e-10 -9.85147e-10 -3.64691e-09 -10.2786 0.731801 -0.0259123 -2.94318e-10 -9.85145e-10 -3.64691e-09 -2.22167 -0.733487 0.20892 -2.03217e-16 0.0 -3.88251e-19 -15.0109 -47.5964 -3.7901 -0.348109 36.5767 0.300742 0.509902 -2.36359 6.7809 2.03217e-16 0.0 3.88251e-19 -9.50666 14.8575 4.59632 0.979247 60.8322 -1.96156 0.477905 10.965 11.5408
74.5119 76.1932 14.2167 -187.366 70.5085 -183.102 -10.8951 15.4463 -9.09254 8.81493 2.5849 -2.79986 -13.4788 9.54661 1.20455 23.144 -39.1034 12.9722 -0.0 0.0 0.0 -0.0 0.0 0.0 -1.34477e-13 6.70548e-13 2.09308e-13 77.2952 3.33306 8.39749 -28.2226 -39.0355 82.2102 -3.50046 -45.7954 -8.29795 2.44846e-10 -1.11195e-09 9.99056e-10 3.90702e-10 -1.92951e-09 1.74211e-09 2.44858e-10 -1.11195e-09 9.99049e-10 7.73091 5.47488 0.417314 2.44845e-10 -1.11194e-09 9.99047e-10 2.90554 0.965183 0.102902 2.44853e-10 -1.11195e-09 9.99055e-10 10.2786 0.731801 0.0259123 2.44845e-10 -1.11195e-09 9.9906e-10 2.22167 -0.733487 -0.20892 -1.34487e-13 6.70541e-13 2.09028e-13 -79.8778 43.743 10.011 23.7497 -18.6094 -48.8683 0.468446 -19.1998 2.80257 -3.55525e-10 -3.75604e-10 -1.52587e-09 -5.82224e-10 -6.52179e-10 -2.63975e-09 -3.5553e-10 -3.75604e-10 -1.52583e-09 -7.73091 5.47488 -0.417314 -3.55525e-10 -3.75602e-10 -1.52586e-09 -2.90554 0.965183 -0.102902 -3.55536e-10 -3.75604e-10 -1.52586e-09 -10.2786 0.731801 -0.0259123 -3.55519e-10 -3.75602e-10 -1.52586e-09 -2.22167 -0.733487 0.20892 -2.03217e-16 0.0 -3.88251e-19 -14.2693 -47.7375 -4.76139 -0.435579 40.2326 0.312373 0.650203 -0.857014 8.84533 2.03217e-16 0.0 3.88251e-19 -7.29343 13.0186 6.47731 1.39429 66.3304 -2.39168 0.76495 10.2497 13.0325
78.3496 76.5282 12.9277 -183.482 70.7406 -179.944 -9.30733 16.2175 -9.09807 8.08988 2.17537 -2.68693 -12.9973 9.58082 1.4369 22.6332 -39.8517 13.4278 -0.0 0.0 0.0 -0.0 0.0 0.0 5.06432e-15 -2.37032e-12 -2.12233e-13 77.6343 4.01403 8.37394 -28.1097 -39.8395 83.6049 -4.02005 -48.1089 -9.00686 1.25508e-09 -1.2781e-10 -2.31343e-10 2.17061e-09 -3.16271e-10 -3.35751e-10 1.25509e-09 -1.27808e-10 -2.3135e-10 7.73091 5.47488 0.417314 1.25508e-09 -1.27805e-10 -2.31351e-10 2.90554 0.965183 0.102902 1.25509e-09 -1.27807e-10 -2.31341e-10 10.2786 0.731801 0.0259123 1.25508e-09 -1.27806e-10 -2.31336e-10 2.22167 -0.733487 -0.20892 5.0446e-15 -2.37033e-12 -2.12496e-13 -83.6121 42.4917 13.564 23.0596 -17.3989 -46.8478 0.374949 -17.2002 2.49216 -4.66937e-10 2.29945e-10 5.57788e-10 -8.0878e-10 3.95212e-10 9.59469e-10 -4.66943e-10 2.29945e-10 5.57825e-10 -7.73091 5.47488 -0.417314 -4.66938e-10 2.29946e-10 5.57799e-10 -2.90554 0.965183 -0.102902 -4.6695e-10 2.29945e-10 5.57802e-10 -10.2786 0.731801 -0.0259123 -4.66932e-10 2.29947e-10 5.57801e-10 -2.22167 -0.733487 0.20892 -2.03217e-16 0.0 -3.88251e-19 -13.3258 -47.7023 -5.64628 -0.534974 44.1818 0.344174 0.735492 0.135832 10.4771 2.03217e-16 0.0 3.88251e-19 -4.6825 10.8789 8.33984 2.11381 71.8681 -3.12024 1.06947 9.56792 14.2165
81.9549 76.2688 11.8932 -179.023 70.8182 -176.379 -7.47751 16.9757 -9.05771 7.40189 1.89069 -2.55491 -12.5444 9.56581 1.60604 22.1907 -40.6575 13.8113 -0.0 0.0 0.0 -0.0 0.0 0.0 1.15298e-13 -4.25468e-12 -5.03174e-13 77.7738 4.4317 8.48286 -27.9736 -40.5519 84.9164 -4.54411 -50.1495 -9.69368 1.76017e-09 5.88876e-10 -1.13769e-09 3.07152e-09 8.66787e-10 -1.87524e-09 1.76018e-09 5.88878e-10 -1.13769e-09 7.73091 5.47488 0.417314 1.76017e-09 5.88878e-10 -1.13769e-09 2.90554 0.965183 0.102902 1.76018e-09 5.88879e-10 -1.13768e-09 10.2786 0.731801 0.0259123 1.76017e-09 5.8888e-10 -1.13768e-09 2.22167 -0.733487 -0.20892 1.15251e-13 -4.2547e-12 -5.03422e-13 -86.7945 41.2513 16.3407 22.2479 -16.1341 -44.4648 0.293811 -15.2452 2.19514 -6.14515e-10 5.54377e-10 1.57826e-09 -1.08371e-09 9.55938e-10 2.72103e-09 -6.14521e-10 5.54378e-10 1.5783e-09 -7.73091 5.47488 -0.417314 -6.14515e-10 5.54378e-10 1.57827e-09 -2.90554 0.965183 -0.102902 -6.14529e-10 5.54378e-10 1.57827e-09 -10.2786 0.731801 -0.0259123 -6.1451e-10 5.54378e-10 1.57827e-09 -2.22167 -0.733487 0.20892 -2.03217e-16 0.0 -3.88251e-19 -12.0084 -46.9113 -6.20679 -0.626733 47.4114 0.378139 0.919058 -0.321395 10.7864 2.03217e-16 0.0 3.88251e-19 -1.82624 8.39304 9.91773 3.47715 77.2171 -4.46218 1.29335 9.14122 14.3157
85.1254 74.6025 11.3893 -173.489 70.835 -172.115 -5.09432 17.811 -8.93895 6.70585 1.78639 -2.37915 -12.1068 9.43595 1.72976 21.7664 -41.5994 14.1748 -0.0 0.0 0.0 -0.0 0.0 0.0 1.84682e-13 -4.47024e-12 -6.02945e-13 77.6433 4.56675 8.84222 -27.8303 -41.1937 86.1231 -5.07375 -52.0189 -10.372 1.40855e-09 9.52791e-10 -1.6032e-09 2.48548e-09 1.49091e-09 -2.68904e-09 1.40856e-09 9.52793e-10 -1.60321e-09 7.73091 5.47488 0.417314 1.40855e-09 9.52792e-10 -1.6032e-09 2.90554 0.965183 0.102902 1.40856e-09 9.52793e-10 -1.60319e-09 10.2786 0.731801 0.0259123 1.40855e-09 9.52794e-10 -1.60319e-09 2.22167 -0.733487 -0.20892 1.84569e-13 -4.47025e-12 -6.03178e-13 -89.3247 39.9508 18.0132 21.1822 -14.6732 -41.3328 0.210221 -13.1423 1.87955 -7.32434e-10 4.67156e-10 9.6755e-10 -1.2865e-09 8.03669e-10 1.66347e-09 -7.3244e-10 4.67158e-10 9.67587e-10 -7.73091 5.47488 -0.417314 -7.32434e-10 4.67157e-10 9.67561e-10 -2.90554 0.965183 -0.102902 -7.32447e-10 4.67157e-10 9.67562e-10 -10.2786 0.731801 -0.0259123 -7.32429e-10 4.67158e-10 9.67558e-10 -2.22167 -0.733487 0.20892 -2.03217e-16 0.0 -3.88251e-19 -9.90326 -45.0962 -6.22978 -0.711597 49.7833 0.408478 1.26097 -3.10642 9.23795 2.03217e-16 0.0 3.88251e-19 1.64261 5.57752 11.2735 6.84159 82.5221 -7.75923 1.39532 9.02086 12.7728
88.6435 74.3156 10.4661 -167.211 70.6751 -166.999 -2.25205 18.7247 -8.7711 5.96612 1.77528 -2.1683 -11.6239 9.2182 1.82147 21.2715 -42.6217 14.4873 -0.0 0.0 0.0 -0.0 0.0 0.0 2.37534e-13 -3.67595e-12 -5.9641e-13 77.2736 4.51059 9.44865 -27.6923 -41.7916 87.2099 -5.62457 -53.7869 -11.0642 4.92461e-10 1.15783e-09 -1.87787e-09 9.22853e-10 1.87081e-09 -3.19589e-09 4.92468e-10 1.15783e-09 -1.87788e-09 7.73091 5.47488 0.417314 4.92462e-10 1.15783e-09 -1.87788e-09 2.90554 0.965183 0.102902 4.9247e-10 1.15783e-09 -1.87787e-09 10.2786 0.731801 0.0259123 4.92463e-10 1.15783e-09 -1.87787e-09 2.22167 -0.733487 -0.20892 2.37328e-13 -3.67595e-12 -5.96624e-13 -91.4478 38.5759 18.9402 19.7842 -12.9064 -37.6613 0.134307 -10.8209 1.53753 -8.48877e-10 1.3496e-10 -6.29098e-10 -1.47476e-09 2.2702e-10 -1.09838e-09 -8.48884e-10 1.34963e-10 -6.29063e-10 -7.73091 5.47488 -0.417314 -8.48877e-10 1.34962e-10 -6.29091e-10 -2.90554 0.965183 -0.102902 -8.48889e-10 1.34962e-10 -6.29092e-10 -10.2786 0.731801 -0.0259123 -8.48873e-10 1.34963e-10 -6.29097e-10 -2.22167 -0.733487 0.20892 -2.03217e-16 0.0 -3.88251e-19 -7.26201 -42.607 -5.92758 -0.799387 51.7938 0.445843 1.36588 -7.55186 6.42399 2.03217e-16 0.0 3.88251e-19 5.68139 2.46189 12.5319 25.8902 87.7018 -26.7088 1.41882 9.07505 10.12
91.9485 74.238 9.37254 -162.238 70.0527 -162.544 0.412346 19.5137 -8.60284 5.30835 1.79791 -1.97105 -11.1704 9.0403 1.83101 20.8712 -43.5939 14.6493 -0.0 0.0 0.0 -0.0 0.0 0.0 2.81585e-13 -2.53025e-12 -5.56203e-13 76.8047 4.23837 10.0368 -27.5583 -42.3179 88.1706 -6.10382 -55.1796 -11.6544 -4.16243e-10 1.25053e-09 -2.03696e-09 -6.31233e-10 2.06014e-09 -3.50319e-09 -4.16237e-10 1.25053e-09 -2.03697e-09 7.73091 5.47488 0.417314 -4.16243e-10 1.25053e-09 -2.03697e-09 2.90554 0.965183 0.102902 -4.16233e-10 1.25053e-09 -2.03697e-09 10.2786 0.731801 0.0259123 -4.16241e-10 1.25053e-09 -2.03696e-09 2.22167 -0.733487 -0.20892 2.81296e-13 -2.53024e-12 -5.56403e-13 -93.4451 37.448 19.7749 18.2365 -11.0653 -34.1911 0.0867922 -8.76772 1.24067 -1.09081e-09 -2.73515e-10 -2.41763e-09 -1.87646e-09 -4.81231e-10 -4.19235e-09 -1.09082e-09 -2.73511e-10 -2.4176e-09 -7.73091 5.47488 -0.417314 -1.09081e-09 -2.73512e-10 -2.41762e-09 -2.90554 0.965183 -0.102902 -1.09082e-09 -2.73512e-10 -2.41763e-09 -10.2786 0.731801 -0.0259123 -1.09081e-09 -2.73512e-10 -2.41763e-09 -2.22167 -0.733487 0.20892 -2.03217e-16 0.0 -3.88251e-19 -4.85583 -39.7959 -5.65953 -0.87593 53.3812 0.490029 0.868959 -12.2189 3.0866 2.03217e-16 0.0 3.88251e-19 9.46228 -0.986024 13.5359 159.356 86.8769 -160.064 1.38622 9.25748 7.21421
95.2606 74.5046 8.07712 -159.812 68.8966 -160.096 2.26712 19.9742 -8.48296 4.85902 1.79485 -1.83609 -10.8215 9.02995 1.70828 20.7197 -44.3867 14.5514 -0.0 0.0 0.0 -0.0 0.0 0.0 3.24565e-13 -1.69157e-12 -5.54957e-13 76.3739 3.72564 10.3422 -27.4294 -42.7437 88.9962 -6.38316 -55.9258 -11.9922 -7.45719e-10 1.27744e-09 -2.15573e-09 -1.19164e-09 2.11257e-09 -3.71832e-09 -7.45714e-10 1.27744e-09 -2.15574e-09 7.73091 5.47488 0.417314 -7.45719e-10 1.27744e-09 -2.15574e-09 2.90554 0.965183 0.102902 -7.45708e-10 1.27744e-09 -2.15573e-09 10.2786 0.731801 0.0259123 -7.45717e-10 1.27743e-09 -2.15573e-09 2.22167 -0.733487 -0.20892 3.2424e-13 -1.69155e-12 -5.55156e-13 -95.5625 36.8671 21.1354 16.9031 -9.5541 -31.6033 0.0689321 -7.47006 1.0559 -1.58521e-09 -5.89573e-10 -3.60398e-09 -2.71956e-09 -1.02831e-09 -6.24627e-09 -1.58522e-09 -5.89568e-10 -3.60395e-09 -7.73091 5.47488 -0.417314 -1.58521e-09 -5.8957e-10 -3.60398e-09 -2.90554 0.965183 -0.102902 -1.58522e-09 -5.8957e-10 -3.60398e-09 -10.2786 0.731801 -0.0259123 -1.58521e-09 -5.8957e-10 -3.60399e-09 -2.22167 -0.733487 0.20892 -2.03217e-16 0.0 -3.88251e-19 -3.36946 -37.0208 -5.72035 -0.926212 54.4839 0.540109 -0.0909154 -15.6117 -0.0321616 2.03217e-16 0.0 3.88251e-19 12.1132 -4.81107 14.1325 170.629 82.7471 -171.238 1.3151 9.54388 4.91379
